<svg width="50" height="50" fill="none" xmlns="http://www.w3.org/2000/svg"><path opacity=".25" fill-rule="evenodd" clip-rule="evenodd" d="M24.805 50c12.404 0 22.46-10.056 22.46-22.46 0-12.406-10.056-22.462-22.46-22.462C12.4 5.078 2.344 15.134 2.344 27.54S12.4 50 24.804 50z" fill="#fff" fill-opacity=".01"/><path fill-rule="evenodd" clip-rule="evenodd" d="M25 50c13.807 0 25-11.193 25-25S38.807 0 25 0 0 11.193 0 25s11.193 25 25 25z" fill="#fff"/><mask id="a" style="mask-type:alpha" maskUnits="userSpaceOnUse" x="0" y="0" width="50" height="50"><path fill-rule="evenodd" clip-rule="evenodd" d="M25 50c13.807 0 25-11.193 25-25S38.807 0 25 0 0 11.193 0 25s11.193 25 25 25z" fill="#fff"/></mask><g mask="url(#a)"><path d="M44.385-19.56c-13.942 0-60.301 25.619-60.301 39.562-.004 2.71 16.372 10.651 17.229 13.222h7.549V11.979l16.41 16.412L41.685 11.98v21.245h7.549c.854-2.572 11.782-2.123 11.78-4.833C61.014 14.448 39.216 0 25.274 0" fill="#FA6800"/><path d="M14.282 25.003V38.37h-10.6C.062 51.188 16.07 66.313 25.176 66.313S58.257 51.102 46.671 38.37h-10.6V25.003l-7.134 7.166-3.758 3.772-3.758-3.773-7.139-7.165z" fill="#4C4C4C"/></g></svg>