<svg width="26" height="26" fill="none" xmlns="http://www.w3.org/2000/svg"><path fill-rule="evenodd" clip-rule="evenodd" d="M13 0c7.168 0 13 5.832 13 13 0 7.169-5.832 13-13 13-7.169 0-13-5.831-13-13C0 5.832 5.831 0 13 0zM8.079 15.66l4.52 4.522a.567.567 0 00.801 0l4.521-4.521a.565.565 0 10-.799-.8l-3.557 3.557v-12.2a.565.565 0 00-1.13 0v12.2l-3.557-3.557a.565.565 0 10-.8.8z" fill="#fff"/><path fill-rule="evenodd" clip-rule="evenodd" d="M13.984 17.729V5.522A.978.978 0 0013 4.55a.978.978 0 00-.984.972V17.73l-3.187-3.15a.993.993 0 00-1.391 0 .964.964 0 000 1.375L13 21.45l5.561-5.493a.964.964 0 000-1.375.993.993 0 00-1.391 0l-3.186 3.147z" fill="#FA7200"/></svg>