<svg width="300" height="120" fill="none" xmlns="http://www.w3.org/2000/svg"><path fill="#D8D8D8" fill-opacity=".01" d="M0 0h300v120H0z"/><path d="M28.091 53a.538.538 0 01-.517-.711l4.124-12.249h-4.152a.548.548 0 01-.454-.24.534.534 0 01-.05-.507l5.454-12.96A.545.545 0 0133 26h5.182c.184 0 .357.093.457.246a.535.535 0 01.04.514l-4.292 9.5h4.067c.2 0 .385.11.48.283a.535.535 0 01-.023.552l-10.363 15.66a.546.546 0 01-.457.245z" fill="#FA6800"/><path opacity=".5" d="M58.271 33h-1.606l-4.12-6.557V33H50.94v-9.242h1.605l4.133 6.582v-6.582h1.593V33zm4.773.127c-.977 0-1.77-.307-2.38-.92-.605-.618-.908-1.44-.908-2.463v-.19c0-.686.132-1.298.394-1.835a3.036 3.036 0 011.117-1.263 2.948 2.948 0 011.6-.451c.935 0 1.656.298 2.164.895.512.597.768 1.44.768 2.533v.622h-4.488c.047.567.235 1.015.566 1.345.334.33.753.495 1.256.495.707 0 1.282-.285 1.727-.856l.831.793c-.275.41-.643.73-1.104.959a3.455 3.455 0 01-1.543.336zm-.184-5.884c-.423 0-.766.148-1.028.444-.258.296-.423.709-.495 1.238h2.939v-.114c-.034-.517-.171-.906-.413-1.168-.24-.267-.575-.4-1.003-.4zm6.075-2.78v1.669h1.212v1.142h-1.212v3.834c0 .263.05.453.152.572.106.114.292.171.559.171.178 0 .358-.021.54-.063v1.193a3.8 3.8 0 01-1.016.146c-1.185 0-1.777-.654-1.777-1.962v-3.89h-1.13v-1.143h1.13v-1.67h1.542zm8.43 6.41l1.092-4.741h1.504L78.088 33h-1.27l-1.472-4.716L73.9 33h-1.27l-1.879-6.868h1.505l1.11 4.69 1.41-4.69h1.161l1.429 4.741zm3.339-1.37c0-.673.133-1.279.4-1.816a2.896 2.896 0 011.123-1.244c.483-.292 1.037-.438 1.663-.438.927 0 1.678.298 2.254.895.58.597.892 1.388.939 2.374l.006.362c0 .677-.13 1.282-.393 1.815-.258.533-.63.946-1.117 1.238-.483.292-1.041.438-1.676.438-.97 0-1.746-.322-2.33-.965-.58-.647-.87-1.508-.87-2.583v-.077zm1.542.133c0 .706.146 1.26.438 1.663.292.398.698.596 1.219.596.52 0 .924-.203 1.212-.609.292-.406.438-1 .438-1.784 0-.694-.15-1.244-.45-1.65-.297-.406-.7-.61-1.213-.61-.503 0-.903.202-1.2.604-.296.398-.444.994-.444 1.79zm9.744-2.095a3.823 3.823 0 00-.629-.05c-.706 0-1.183.27-1.428.812V33h-1.542v-6.868h1.472l.038.768c.373-.597.889-.895 1.55-.895.22 0 .401.03.545.089l-.006 1.447zm3.205 2.514l-.685.704V33h-1.543v-9.75h1.543v5.624l.482-.603 1.898-2.14h1.854l-2.552 2.864L99.017 33h-1.784l-2.038-2.945zm11.648 1.079a.697.697 0 00-.343-.629c-.224-.143-.598-.27-1.123-.38-.525-.11-.963-.25-1.314-.42-.77-.372-1.155-.911-1.155-1.618 0-.593.249-1.088.749-1.485.499-.398 1.134-.597 1.904-.597.821 0 1.483.203 1.987.61.508.405.762.932.762 1.58h-1.543a.941.941 0 00-.33-.736c-.22-.2-.512-.299-.876-.299-.339 0-.616.078-.832.235a.744.744 0 00-.317.628c0 .237.1.422.298.553.199.13.601.264 1.207.4.605.13 1.079.29 1.421.476.347.182.603.402.768.66.17.258.254.571.254.94 0 .617-.256 1.119-.768 1.504-.512.38-1.182.571-2.012.571-.563 0-1.064-.102-1.504-.305a2.483 2.483 0 01-1.029-.838 1.987 1.987 0 01-.368-1.149h1.498c.021.364.159.646.413.845.254.194.59.292 1.009.292.406 0 .715-.077.927-.229a.726.726 0 00.317-.61zm4.799-6.672v1.67h1.212v1.142h-1.212v3.834c0 .263.051.453.152.572.106.114.292.171.559.171.178 0 .358-.021.54-.063v1.193c-.352.097-.69.146-1.016.146-1.185 0-1.777-.654-1.777-1.962v-3.89h-1.13v-1.143h1.13v-1.67h1.542zm6.5 8.538c-.068-.131-.127-.345-.178-.641a2.4 2.4 0 01-1.802.768c-.69 0-1.253-.197-1.689-.59a1.888 1.888 0 01-.654-1.46c0-.732.271-1.293.813-1.683.546-.393 1.324-.59 2.336-.59h.946v-.45c0-.356-.1-.64-.299-.851-.199-.216-.501-.324-.907-.324-.352 0-.639.09-.864.267a.807.807 0 00-.336.666h-1.543c0-.376.125-.728.375-1.053a2.49 2.49 0 011.015-.775c.432-.186.912-.28 1.441-.28.804 0 1.446.204 1.924.61.478.402.723.97.736 1.701v3.098c0 .618.087 1.11.26 1.48V33h-1.574zm-1.695-1.11c.305 0 .591-.075.857-.223.271-.148.474-.347.61-.597v-1.295h-.832c-.571 0-1.001.1-1.289.299-.287.199-.431.48-.431.844 0 .296.097.533.292.71.199.174.463.261.793.261zm6.557-7.428v1.67h1.213v1.142h-1.213v3.834c0 .263.051.453.153.572.106.114.292.171.558.171.178 0 .358-.021.54-.063v1.193a3.8 3.8 0 01-1.016.146c-1.185 0-1.777-.654-1.777-1.962v-3.89h-1.13v-1.143h1.13v-1.67h1.542zm6.558 7.865c-.453.533-1.097.8-1.93.8-.745 0-1.31-.218-1.695-.654-.381-.436-.571-1.066-.571-1.892v-4.45h1.542v4.431c0 .872.362 1.308 1.086 1.308.749 0 1.254-.269 1.517-.806v-4.932h1.542V33H129.6l-.038-.673zm6.912-1.193a.697.697 0 00-.343-.629c-.224-.143-.598-.27-1.123-.38-.525-.11-.963-.25-1.314-.42-.77-.372-1.155-.911-1.155-1.618 0-.593.249-1.088.749-1.485.499-.398 1.134-.597 1.904-.597.821 0 1.483.203 1.987.61.508.405.761.932.761 1.58h-1.542a.941.941 0 00-.33-.736c-.22-.2-.512-.299-.876-.299-.339 0-.616.078-.832.235a.744.744 0 00-.317.628c0 .237.099.422.298.553.199.13.601.264 1.206.4.606.13 1.079.29 1.422.476.347.182.603.402.768.66.17.258.254.571.254.94 0 .617-.256 1.119-.768 1.504-.512.38-1.183.571-2.012.571-.563 0-1.064-.102-1.504-.305a2.477 2.477 0 01-1.029-.838 1.987 1.987 0 01-.368-1.149h1.498c.021.364.159.646.413.845.254.194.59.292 1.009.292.406 0 .715-.077.927-.229a.726.726 0 00.317-.61z" fill="#fff"/><path d="M58.877 48.338c0-.625-.221-1.107-.664-1.445-.436-.339-1.227-.68-2.373-1.026-1.146-.345-2.057-.729-2.735-1.152-1.295-.814-1.943-1.875-1.943-3.184 0-1.146.466-2.09 1.397-2.832.937-.742 2.151-1.113 3.642-1.113.99 0 1.872.182 2.647.547a4.333 4.333 0 011.826 1.562c.443.67.664 1.416.664 2.237h-2.461c0-.742-.234-1.322-.703-1.739-.462-.423-1.127-.634-1.992-.634-.808 0-1.436.172-1.885.517-.443.345-.664.827-.664 1.446 0 .52.24.956.722 1.308.482.345 1.277.684 2.383 1.016 1.107.325 1.996.7 2.666 1.123.67.416 1.162.898 1.475 1.445.312.54.469 1.175.469 1.904 0 1.185-.456 2.13-1.367 2.832-.906.697-2.136 1.045-3.692 1.045-1.029 0-1.976-.188-2.842-.566-.86-.384-1.53-.912-2.012-1.582-.475-.67-.712-1.452-.712-2.344h2.47c0 .807.267 1.432.801 1.875.534.443 1.299.664 2.295.664.86 0 1.504-.172 1.934-.517.436-.352.654-.814.654-1.387zm8.105.264l2.149-7.168h2.53l-4.2 12.168c-.645 1.777-1.738 2.666-3.281 2.666a4.25 4.25 0 01-1.143-.176v-1.836l.45.03c.598 0 1.047-.111 1.347-.333.306-.215.547-.58.723-1.094l.341-.908-3.71-10.517h2.558l2.236 7.168zm8.252-7.168l.069 1.22c.781-.944 1.806-1.416 3.076-1.416 2.2 0 3.32 1.26 3.36 3.78V52h-2.374v-6.846c0-.67-.146-1.165-.44-1.484-.286-.326-.758-.488-1.415-.488-.957 0-1.67.433-2.139 1.298V52h-2.373V41.434h2.236zM88.506 50.3c.592 0 1.084-.173 1.475-.518.39-.345.598-.771.625-1.28h2.236a3.51 3.51 0 01-.615 1.847 4.053 4.053 0 01-1.563 1.347 4.657 4.657 0 01-2.129.498c-1.478 0-2.65-.478-3.516-1.435-.865-.957-1.298-2.279-1.298-3.965v-.244c0-1.608.43-2.894 1.289-3.858.86-.97 2.031-1.455 3.515-1.455 1.257 0 2.279.368 3.067 1.104.794.729 1.21 1.69 1.25 2.88h-2.236c-.027-.605-.235-1.103-.625-1.494-.385-.39-.876-.585-1.475-.585-.768 0-1.36.28-1.778.84-.416.553-.628 1.396-.634 2.529v.38c0 1.146.205 2.002.615 2.569.417.56 1.016.84 1.797.84zm8.467-7.715c.774-.898 1.754-1.348 2.94-1.348 2.252 0 3.394 1.286 3.427 3.858V52h-2.373v-6.816c0-.73-.16-1.244-.479-1.543-.312-.306-.775-.46-1.386-.46-.951 0-1.66.424-2.13 1.27V52H94.6V37h2.373v5.586zm14.306 1.016a5.86 5.86 0 00-.967-.079c-1.087 0-1.819.417-2.197 1.25V52h-2.373V41.434h2.266l.058 1.181c.573-.918 1.368-1.377 2.383-1.377.339 0 .619.046.84.137l-.01 2.227zm.703 3.017c0-1.035.206-1.966.616-2.793.41-.833.986-1.471 1.728-1.914.742-.45 1.595-.674 2.559-.674 1.426 0 2.581.46 3.467 1.377.891.918 1.373 2.136 1.445 3.653l.01.556c0 1.042-.202 1.973-.606 2.793a4.397 4.397 0 01-1.719 1.905c-.742.449-1.601.673-2.578.673-1.491 0-2.685-.495-3.584-1.484-.892-.996-1.338-2.321-1.338-3.975v-.117zm2.373.205c0 1.087.225 1.94.674 2.559.45.612 1.075.918 1.875.918.801 0 1.423-.313 1.866-.938.449-.625.673-1.54.673-2.744 0-1.068-.231-1.914-.693-2.539-.456-.625-1.077-.937-1.865-.937-.775 0-1.39.309-1.846.927-.456.612-.684 1.53-.684 2.754zm11.661-5.39l.068 1.22c.781-.944 1.807-1.416 3.076-1.416 2.201 0 3.32 1.26 3.36 3.78V52h-2.374v-6.846c0-.67-.146-1.165-.439-1.484-.286-.326-.758-.488-1.416-.488-.957 0-1.67.433-2.139 1.298V52h-2.373V41.434h2.237zM137.471 52h-2.373V41.434h2.373V52zm-2.52-13.31c0-.365.114-.668.342-.909.234-.24.566-.361.996-.361.43 0 .762.12.996.361.235.241.352.544.352.909 0 .358-.117.657-.352.898-.234.234-.566.352-.996.352-.43 0-.762-.118-.996-.352a1.256 1.256 0 01-.342-.898zm7.647 11.416h5.625V52h-8.575v-1.553l5.362-7.1h-5.264v-1.913h8.272v1.504l-5.42 7.167zM152.646 52h-2.373V41.434h2.373V52zm-2.519-13.31c0-.365.114-.668.342-.909.234-.24.566-.361.996-.361.43 0 .762.12.996.361.234.241.351.544.351.909 0 .358-.117.657-.351.898-.234.234-.566.352-.996.352-.43 0-.762-.118-.996-.352a1.256 1.256 0 01-.342-.898zm7.314 2.744l.069 1.22c.781-.944 1.806-1.416 3.076-1.416 2.2 0 3.32 1.26 3.359 3.78V52h-2.373v-6.846c0-.67-.146-1.165-.439-1.484-.287-.326-.759-.488-1.416-.488-.957 0-1.67.433-2.139 1.298V52h-2.373V41.434h2.236zm8.516 5.205c0-1.641.384-2.95 1.152-3.926.775-.983 1.801-1.475 3.077-1.475 1.204 0 2.151.42 2.841 1.26l.108-1.064h2.138v10.244c0 1.387-.433 2.48-1.298 3.281-.86.8-2.022 1.201-3.487 1.201a5.614 5.614 0 01-2.275-.488c-.736-.32-1.296-.74-1.68-1.26l1.123-1.426c.729.866 1.628 1.3 2.696 1.3.787 0 1.409-.216 1.865-.645.456-.424.683-1.049.683-1.875v-.713c-.683.762-1.595 1.142-2.734 1.142-1.237 0-2.249-.491-3.037-1.474-.781-.983-1.172-2.344-1.172-4.082zm2.363.205c0 1.06.215 1.898.645 2.51.436.605 1.038.908 1.806.908.958 0 1.667-.41 2.129-1.23v-4.65c-.449-.8-1.152-1.2-2.109-1.2-.781 0-1.39.309-1.826.927-.43.619-.645 1.53-.645 2.735zM20.94 83v-9.242h3.167c1.045 0 1.84.21 2.387.628.546.42.819 1.043.819 1.873 0 .423-.115.804-.343 1.142-.229.339-.563.601-1.003.788.5.135.884.39 1.155.768.275.372.413.82.413 1.345 0 .868-.28 1.534-.838 2-.555.465-1.35.698-2.387.698h-3.37zm1.605-4.17v2.888h1.784c.504 0 .897-.125 1.18-.375.284-.25.426-.596.426-1.04 0-.961-.49-1.452-1.473-1.473h-1.917zm0-1.181h1.575c.499 0 .888-.112 1.168-.337.283-.228.425-.55.425-.964 0-.457-.131-.787-.394-.99-.258-.204-.662-.305-1.212-.305h-1.562v2.596zM30.632 83H29.09v-9.75h1.542V83zm1.397-3.498c0-.672.133-1.278.4-1.815a2.896 2.896 0 011.123-1.244c.483-.292 1.037-.438 1.663-.438.927 0 1.678.298 2.254.895.58.597.893 1.388.94 2.374l.006.362c0 .677-.132 1.282-.394 1.815-.258.533-.63.946-1.117 1.238-.483.292-1.041.438-1.676.438-.969 0-1.746-.322-2.33-.965-.58-.647-.87-1.509-.87-2.583v-.077zm1.542.134c0 .706.146 1.26.438 1.663.292.398.699.596 1.219.596.52 0 .925-.203 1.212-.609.292-.406.438-1 .438-1.784 0-.694-.15-1.244-.45-1.65-.296-.406-.7-.61-1.213-.61-.503 0-.903.202-1.2.604-.296.397-.444.994-.444 1.79zm8.97 2.26c.385 0 .704-.113.958-.337a1.15 1.15 0 00.406-.831h1.454c-.017.427-.15.827-.4 1.2-.25.367-.588.66-1.016.875a3.027 3.027 0 01-1.383.324c-.961 0-1.723-.311-2.286-.933-.562-.622-.844-1.481-.844-2.577v-.159c0-1.045.28-1.881.838-2.507.559-.63 1.32-.946 2.285-.946.817 0 1.481.239 1.993.717.517.474.788 1.098.813 1.873h-1.454c-.017-.394-.152-.718-.406-.971-.25-.254-.57-.381-.959-.381-.499 0-.884.182-1.155.546-.27.36-.408.907-.412 1.644v.247c0 .745.133 1.301.4 1.67.27.364.66.546 1.168.546zm6.214-1.841l-.686.704V83h-1.542v-9.75h1.542v5.624l.483-.603 1.898-2.14h1.853l-2.551 2.864L52.575 83h-1.784l-2.037-2.945zm8.41 1.079a.698.698 0 00-.342-.629c-.224-.143-.599-.27-1.124-.38-.524-.11-.962-.25-1.314-.42-.77-.372-1.155-.911-1.155-1.618 0-.593.25-1.088.749-1.485.5-.398 1.134-.597 1.904-.597.821 0 1.483.203 1.987.61.508.406.762.932.762 1.58h-1.543a.941.941 0 00-.33-.736c-.22-.2-.512-.299-.876-.299-.338 0-.615.078-.831.235a.743.743 0 00-.318.628c0 .237.1.422.299.553.199.13.6.264 1.206.4.605.13 1.079.29 1.422.476.347.182.603.402.768.66.169.258.254.571.254.94 0 .617-.256 1.119-.768 1.504-.512.38-1.183.571-2.013.571-.563 0-1.064-.102-1.504-.305a2.477 2.477 0 01-1.028-.838 1.984 1.984 0 01-.368-1.149h1.497c.022.364.16.646.413.845.254.194.59.292 1.01.292.406 0 .715-.076.926-.229a.725.725 0 00.318-.61zm9.7-3.593a3.823 3.823 0 00-.629-.05c-.706 0-1.183.27-1.428.812V83h-1.542v-6.868h1.472l.038.768c.373-.597.889-.895 1.55-.895.22 0 .401.03.545.089l-.006 1.447zm3.872 5.586c-.978 0-1.771-.307-2.38-.92-.606-.618-.908-1.44-.908-2.463v-.19c0-.686.13-1.298.393-1.835a3.036 3.036 0 011.118-1.263c.478-.3 1.01-.451 1.6-.451.934 0 1.656.298 2.164.895.512.597.768 1.44.768 2.533v.622h-4.488c.046.567.235 1.015.565 1.345.334.33.753.495 1.257.495.706 0 1.282-.285 1.726-.856l.832.793a2.8 2.8 0 01-1.105.959 3.455 3.455 0 01-1.542.336zm-.184-5.884c-.423 0-.766.148-1.029.444-.258.296-.423.709-.495 1.238h2.94v-.114c-.035-.517-.172-.906-.413-1.168-.242-.267-.576-.4-1.003-.4zm5.592-1.111l.044.717c.483-.563 1.143-.844 1.98-.844.92 0 1.548.351 1.886 1.054.5-.703 1.202-1.054 2.108-1.054.757 0 1.32.21 1.688.628.373.42.563 1.037.571 1.854V83H82.88v-4.469c0-.436-.095-.755-.286-.958-.19-.203-.505-.305-.946-.305-.35 0-.639.095-.863.286a1.48 1.48 0 00-.463.736l.006 4.71h-1.542v-4.52c-.022-.808-.434-1.212-1.238-1.212-.618 0-1.056.252-1.314.755V83H74.69v-6.868h1.454zM90.11 83c-.068-.131-.127-.345-.178-.641a2.401 2.401 0 01-1.803.768c-.69 0-1.252-.197-1.688-.59a1.889 1.889 0 01-.654-1.46c0-.732.27-1.293.813-1.683.546-.393 1.324-.59 2.336-.59h.945v-.45c0-.356-.1-.64-.298-.851-.199-.216-.501-.324-.908-.324-.35 0-.639.09-.863.267a.807.807 0 00-.336.666h-1.543c0-.376.125-.728.375-1.053a2.49 2.49 0 011.015-.775c.432-.186.912-.28 1.441-.28.804 0 1.445.204 1.924.61.478.402.723.97.736 1.701v3.098c0 .618.087 1.11.26 1.48V83H90.11zm-1.695-1.11c.305 0 .59-.075.857-.223a1.48 1.48 0 00.61-.597v-1.295h-.832c-.572 0-1.001.1-1.289.299-.287.199-.431.48-.431.844 0 .296.097.533.292.71.198.174.463.261.793.261zM94.68 83h-1.542v-6.868h1.542V83zm-1.638-8.652c0-.237.075-.434.223-.59.152-.157.368-.235.647-.235.28 0 .495.078.648.235a.813.813 0 01.228.59.804.804 0 01-.228.584c-.153.153-.369.229-.648.229-.28 0-.495-.076-.647-.229a.817.817 0 01-.222-.584zm4.755 1.784l.044.793c.508-.613 1.175-.92 2-.92 1.43 0 2.158.819 2.183 2.456V83h-1.542v-4.45c0-.436-.095-.757-.286-.965-.186-.211-.493-.317-.92-.317-.622 0-1.086.281-1.39.844V83h-1.543v-6.868h1.454zM105.243 83H103.7v-6.868h1.543V83zm-1.638-8.652c0-.237.074-.434.222-.59.152-.157.368-.235.648-.235.279 0 .495.078.647.235a.814.814 0 01.229.59.806.806 0 01-.229.584c-.152.153-.368.229-.647.229-.28 0-.496-.076-.648-.229a.817.817 0 01-.222-.584zm4.754 1.784l.045.793c.508-.613 1.174-.92 1.999-.92 1.431 0 2.159.819 2.184 2.456V83h-1.543v-4.45c0-.436-.095-.757-.285-.965-.186-.211-.493-.317-.921-.317-.622 0-1.085.281-1.39.844V83h-1.542v-6.868h1.453zm5.536 3.383c0-1.066.249-1.917.749-2.552.503-.639 1.17-.958 1.999-.958.783 0 1.399.273 1.847.819l.07-.692h1.39v6.658c0 .902-.281 1.613-.844 2.133-.559.52-1.314.781-2.266.781-.504 0-.997-.106-1.479-.317-.478-.208-.842-.48-1.092-.82l.73-.926c.474.563 1.058.844 1.752.844.512 0 .916-.14 1.212-.419.297-.275.445-.68.445-1.218v-.464c-.445.495-1.037.743-1.778.743-.804 0-1.462-.32-1.974-.959-.508-.639-.761-1.523-.761-2.653zm1.536.133c0 .69.139 1.234.419 1.632.283.393.675.59 1.174.59.622 0 1.083-.267 1.384-.8v-3.02c-.292-.52-.749-.78-1.371-.78-.508 0-.904.2-1.187.602-.28.402-.419.995-.419 1.777zm130.26-5.935v1.276h-.191c-.863.013-1.553.25-2.069.711-.516.462-.823 1.115-.92 1.962.495-.52 1.128-.781 1.898-.781.816 0 1.46.288 1.929.863.474.576.711 1.318.711 2.228 0 .94-.277 1.701-.831 2.285-.55.58-1.274.87-2.171.87-.923 0-1.672-.34-2.247-1.022-.571-.681-.857-1.574-.857-2.679V78.9c0-1.62.393-2.89 1.181-3.808.791-.918 1.927-1.378 3.408-1.378h.159zm-1.657 4.412a1.64 1.64 0 00-.933.286c-.279.19-.484.444-.616.761v.47c0 .686.144 1.232.432 1.638.288.402.66.603 1.117.603.457 0 .819-.172 1.086-.514.266-.343.4-.794.4-1.352 0-.559-.136-1.014-.407-1.365a1.294 1.294 0 00-1.079-.527zm10.398-3.51L250.737 83h-1.618l3.688-8.004h-4.78v-1.238h6.405v.857zm1.555 10.467l-.832-.495c.246-.385.413-.722.502-1.01a2.9 2.9 0 00.146-.869v-1.2h1.39l-.006 1.111a3.066 3.066 0 01-.343 1.346 3.31 3.31 0 01-.857 1.117zm8.69-10.467L260.982 83h-1.618l3.688-8.004h-4.78v-1.238h6.405v.857zm7.388 0L268.371 83h-1.619l3.688-8.004h-4.779v-1.238h6.404v.857zm1.651 3.802l.501-4.66h4.964v1.334H275.5l-.254 2.209a2.85 2.85 0 011.447-.368c.88 0 1.564.281 2.05.844.491.563.736 1.32.736 2.272 0 .94-.27 1.689-.812 2.247-.542.555-1.284.832-2.228.832-.846 0-1.549-.24-2.107-.717-.555-.483-.855-1.117-.902-1.905h1.492c.059.449.22.794.482 1.035.263.237.605.355 1.029.355.474 0 .842-.169 1.104-.507.267-.339.4-.8.4-1.384 0-.563-.146-1.007-.438-1.333-.292-.33-.694-.495-1.206-.495a1.96 1.96 0 00-.711.114c-.195.072-.406.216-.635.432l-1.231-.305z" fill="#fff"/><rect opacity=".2" x="20" y="92" width="260" height="8" rx="4" fill="#fff"/><rect x="20" y="92" width="171" height="8" rx="4" fill="#FA6800"/></svg>