<svg width="300" height="121" viewBox="0 0 300 121" fill="none" xmlns="http://www.w3.org/2000/svg">
<rect width="300" height="120" rx="5" fill="black"/>
<rect y="1" width="300" height="120" fill="#D8D8D8" fill-opacity="0.01"/>
<path d="M28.091 54C28.0108 54 27.9301 53.9827 27.8538 53.946C27.6067 53.8272 27.4872 53.5464 27.5739 53.2888L31.698 41.04H27.5456C27.3634 41.04 27.1932 40.9498 27.0918 40.7997C26.9903 40.6496 26.9718 40.459 27.0421 40.2926L32.4965 27.3326C32.5811 27.1312 32.7796 27 33 27H38.1816C38.3665 27 38.5389 27.0929 38.6392 27.2462C38.7402 27.4001 38.7549 27.5935 38.6796 27.7603L34.387 37.26H38.4543C38.6545 37.26 38.8389 37.3691 38.9343 37.543C39.0298 37.7174 39.0205 37.9296 38.9109 38.0954L28.5476 53.7554C28.4434 53.9131 28.2699 54 28.091 54Z" fill="#FA6800"/>
<path opacity="0.5" d="M58.271 34H56.665L52.5454 27.4429V34H50.9395V24.7578H52.5454L56.6777 31.3403V24.7578H58.271V34ZM63.0444 34.127C62.0669 34.127 61.2734 33.8201 60.6641 33.2065C60.0589 32.5887 59.7563 31.7677 59.7563 30.7437V30.5532C59.7563 29.8677 59.8875 29.2562 60.1499 28.7188C60.4165 28.1771 60.7889 27.756 61.2671 27.4556C61.7453 27.1551 62.2785 27.0049 62.8667 27.0049C63.8019 27.0049 64.5234 27.3032 65.0312 27.8999C65.5433 28.4966 65.7993 29.3408 65.7993 30.4326V31.0547H61.3115C61.3581 31.6217 61.5464 32.0703 61.8765 32.4004C62.2108 32.7305 62.6297 32.8955 63.1333 32.8955C63.84 32.8955 64.4155 32.6099 64.8599 32.0386L65.6914 32.832C65.4163 33.2425 65.0482 33.562 64.5869 33.7905C64.1299 34.0148 63.6157 34.127 63.0444 34.127ZM62.8604 28.2427C62.4372 28.2427 62.0944 28.3908 61.832 28.687C61.5739 28.9832 61.4089 29.3958 61.3369 29.9248H64.2759V29.8105C64.242 29.2943 64.1045 28.9049 63.8633 28.6426C63.6221 28.376 63.2878 28.2427 62.8604 28.2427ZM68.9351 25.4624V27.1318H70.1475V28.2744H68.9351V32.1084C68.9351 32.3708 68.9858 32.5612 69.0874 32.6797C69.1932 32.7939 69.3794 32.8511 69.646 32.8511C69.8237 32.8511 70.0036 32.8299 70.1855 32.7876V33.981C69.8343 34.0783 69.4958 34.127 69.1699 34.127C67.985 34.127 67.3926 33.4731 67.3926 32.1655V28.2744H66.2627V27.1318H67.3926V25.4624H68.9351ZM77.3647 31.8735L78.4565 27.1318H79.9609L78.0884 34H76.8188L75.3462 29.2837L73.8989 34H72.6294L70.7505 27.1318H72.2549L73.3657 31.8228L74.7749 27.1318H75.9365L77.3647 31.8735ZM80.7036 30.5024C80.7036 29.8296 80.8369 29.2244 81.1035 28.687C81.3701 28.1453 81.7446 27.7306 82.2271 27.4429C82.7095 27.1509 83.2638 27.0049 83.8901 27.0049C84.8169 27.0049 85.568 27.3032 86.1436 27.8999C86.7233 28.4966 87.0365 29.2879 87.083 30.2739L87.0894 30.6357C87.0894 31.3128 86.9582 31.918 86.6958 32.4512C86.4377 32.9844 86.0653 33.397 85.5786 33.689C85.0962 33.981 84.5376 34.127 83.9028 34.127C82.9338 34.127 82.1572 33.8053 81.5732 33.1621C80.9935 32.5146 80.7036 31.6535 80.7036 30.5786V30.5024ZM82.2461 30.6357C82.2461 31.3424 82.3921 31.8968 82.6841 32.2988C82.9761 32.6966 83.3823 32.8955 83.9028 32.8955C84.4233 32.8955 84.8275 32.6924 85.1152 32.2861C85.4072 31.8799 85.5532 31.2853 85.5532 30.5024C85.5532 29.8084 85.403 29.2583 85.1025 28.8521C84.8063 28.4458 84.4022 28.2427 83.8901 28.2427C83.3866 28.2427 82.9867 28.4437 82.6904 28.8457C82.3942 29.2435 82.2461 29.8402 82.2461 30.6357ZM91.9897 28.541C91.7866 28.5072 91.5771 28.4902 91.3613 28.4902C90.6546 28.4902 90.1785 28.7611 89.9331 29.3027V34H88.3906V27.1318H89.8633L89.9014 27.8999C90.2738 27.3032 90.79 27.0049 91.4502 27.0049C91.6702 27.0049 91.8522 27.0345 91.9961 27.0938L91.9897 28.541ZM95.1953 31.0547L94.5098 31.7593V34H92.9673V24.25H94.5098V29.874L94.9922 29.271L96.8901 27.1318H98.7437L96.1919 29.9946L99.0166 34H97.2329L95.1953 31.0547ZM106.843 32.1338C106.843 31.8587 106.729 31.6493 106.5 31.5054C106.276 31.3615 105.902 31.2345 105.377 31.1245C104.852 31.0145 104.414 30.8748 104.063 30.7056C103.293 30.3332 102.908 29.7936 102.908 29.0869C102.908 28.4945 103.157 27.9993 103.657 27.6016C104.156 27.2038 104.791 27.0049 105.561 27.0049C106.382 27.0049 107.044 27.208 107.548 27.6143C108.056 28.0205 108.31 28.5474 108.31 29.1948H106.767C106.767 28.8986 106.657 28.6532 106.437 28.4585C106.217 28.2596 105.925 28.1602 105.561 28.1602C105.222 28.1602 104.945 28.2384 104.729 28.395C104.518 28.5516 104.412 28.7611 104.412 29.0234C104.412 29.2604 104.512 29.4445 104.71 29.5757C104.909 29.7069 105.311 29.8402 105.917 29.9756C106.522 30.1068 106.996 30.2655 107.338 30.4517C107.685 30.6336 107.941 30.8537 108.106 31.1118C108.276 31.37 108.36 31.6831 108.36 32.0513C108.36 32.6691 108.104 33.1706 107.592 33.5557C107.08 33.9365 106.41 34.127 105.58 34.127C105.017 34.127 104.516 34.0254 104.076 33.8223C103.636 33.6191 103.293 33.3398 103.047 32.9844C102.802 32.6289 102.679 32.2459 102.679 31.8354H104.177C104.198 32.1994 104.336 32.4808 104.59 32.6797C104.844 32.8743 105.18 32.9717 105.599 32.9717C106.005 32.9717 106.314 32.8955 106.526 32.7432C106.737 32.5866 106.843 32.3835 106.843 32.1338ZM111.642 25.4624V27.1318H112.854V28.2744H111.642V32.1084C111.642 32.3708 111.693 32.5612 111.794 32.6797C111.9 32.7939 112.086 32.8511 112.353 32.8511C112.531 32.8511 112.711 32.8299 112.893 32.7876V33.981C112.541 34.0783 112.203 34.127 111.877 34.127C110.692 34.127 110.1 33.4731 110.1 32.1655V28.2744H108.97V27.1318H110.1V25.4624H111.642ZM118.142 34C118.074 33.8688 118.015 33.6551 117.964 33.3589C117.473 33.8709 116.873 34.127 116.162 34.127C115.472 34.127 114.909 33.9302 114.473 33.5366C114.037 33.1431 113.819 32.6564 113.819 32.0767C113.819 31.3446 114.09 30.7839 114.632 30.3945C115.178 30.001 115.956 29.8042 116.968 29.8042H117.914V29.3535C117.914 28.998 117.814 28.7145 117.615 28.5029C117.416 28.2871 117.114 28.1792 116.708 28.1792C116.356 28.1792 116.069 28.2681 115.844 28.4458C115.62 28.6193 115.508 28.8415 115.508 29.1123H113.965C113.965 28.7357 114.09 28.3844 114.34 28.0586C114.59 27.7285 114.928 27.4704 115.355 27.2842C115.787 27.098 116.267 27.0049 116.796 27.0049C117.6 27.0049 118.242 27.208 118.72 27.6143C119.198 28.0163 119.443 28.5833 119.456 29.3154V32.4131C119.456 33.0309 119.543 33.5239 119.716 33.8921V34H118.142ZM116.447 32.8892C116.752 32.8892 117.038 32.8151 117.304 32.667C117.575 32.5189 117.778 32.32 117.914 32.0703V30.7754H117.082C116.511 30.7754 116.081 30.8748 115.793 31.0737C115.506 31.2726 115.362 31.554 115.362 31.918C115.362 32.2142 115.459 32.4512 115.654 32.6289C115.853 32.8024 116.117 32.8892 116.447 32.8892ZM123.004 25.4624V27.1318H124.217V28.2744H123.004V32.1084C123.004 32.3708 123.055 32.5612 123.157 32.6797C123.263 32.7939 123.449 32.8511 123.715 32.8511C123.893 32.8511 124.073 32.8299 124.255 32.7876V33.981C123.904 34.0783 123.565 34.127 123.239 34.127C122.054 34.127 121.462 33.4731 121.462 32.1655V28.2744H120.332V27.1318H121.462V25.4624H123.004ZM129.562 33.3271C129.109 33.8604 128.465 34.127 127.632 34.127C126.887 34.127 126.322 33.909 125.937 33.4731C125.556 33.0373 125.366 32.4067 125.366 31.5815V27.1318H126.908V31.5625C126.908 32.4342 127.27 32.8701 127.994 32.8701C128.743 32.8701 129.248 32.6014 129.511 32.064V27.1318H131.053V34H129.6L129.562 33.3271ZM136.474 32.1338C136.474 31.8587 136.36 31.6493 136.131 31.5054C135.907 31.3615 135.533 31.2345 135.008 31.1245C134.483 31.0145 134.045 30.8748 133.694 30.7056C132.924 30.3332 132.539 29.7936 132.539 29.0869C132.539 28.4945 132.788 27.9993 133.288 27.6016C133.787 27.2038 134.422 27.0049 135.192 27.0049C136.013 27.0049 136.675 27.208 137.179 27.6143C137.687 28.0205 137.94 28.5474 137.94 29.1948H136.398C136.398 28.8986 136.288 28.6532 136.068 28.4585C135.848 28.2596 135.556 28.1602 135.192 28.1602C134.853 28.1602 134.576 28.2384 134.36 28.395C134.149 28.5516 134.043 28.7611 134.043 29.0234C134.043 29.2604 134.142 29.4445 134.341 29.5757C134.54 29.7069 134.942 29.8402 135.547 29.9756C136.153 30.1068 136.626 30.2655 136.969 30.4517C137.316 30.6336 137.572 30.8537 137.737 31.1118C137.907 31.37 137.991 31.6831 137.991 32.0513C137.991 32.6691 137.735 33.1706 137.223 33.5557C136.711 33.9365 136.04 34.127 135.211 34.127C134.648 34.127 134.147 34.0254 133.707 33.8223C133.266 33.6191 132.924 33.3398 132.678 32.9844C132.433 32.6289 132.31 32.2459 132.31 31.8354H133.808C133.829 32.1994 133.967 32.4808 134.221 32.6797C134.475 32.8743 134.811 32.9717 135.23 32.9717C135.636 32.9717 135.945 32.8955 136.157 32.7432C136.368 32.5866 136.474 32.3835 136.474 32.1338Z" fill="white"/>
<path d="M58.877 49.3379C58.877 48.7129 58.6556 48.2311 58.2129 47.8926C57.7767 47.554 56.9857 47.2122 55.8398 46.8672C54.694 46.5221 53.7826 46.138 53.1055 45.7148C51.8099 44.901 51.1621 43.8398 51.1621 42.5312C51.1621 41.3854 51.6276 40.4414 52.5586 39.6992C53.4961 38.957 54.7103 38.5859 56.2012 38.5859C57.1908 38.5859 58.0729 38.7682 58.8477 39.1328C59.6224 39.4974 60.2311 40.0182 60.6738 40.6953C61.1165 41.3659 61.3379 42.1113 61.3379 42.9316H58.877C58.877 42.1895 58.6426 41.61 58.1738 41.1934C57.7116 40.7702 57.0475 40.5586 56.1816 40.5586C55.3743 40.5586 54.7461 40.7311 54.2969 41.0762C53.8542 41.4212 53.6328 41.903 53.6328 42.5215C53.6328 43.0423 53.8737 43.4785 54.3555 43.8301C54.8372 44.1751 55.6315 44.5137 56.7383 44.8457C57.8451 45.1712 58.7337 45.5456 59.4043 45.9688C60.0749 46.3854 60.5664 46.8672 60.8789 47.4141C61.1914 47.9544 61.3477 48.5892 61.3477 49.3184C61.3477 50.5033 60.8919 51.4473 59.9805 52.1504C59.0755 52.847 57.8451 53.1953 56.2891 53.1953C55.2604 53.1953 54.3132 53.0065 53.4473 52.6289C52.5879 52.2448 51.9173 51.7174 51.4355 51.0469C50.9603 50.3763 50.7227 49.5951 50.7227 48.7031H53.1934C53.1934 49.5104 53.4603 50.1354 53.9941 50.5781C54.528 51.0208 55.293 51.2422 56.2891 51.2422C57.1484 51.2422 57.793 51.0697 58.2227 50.7246C58.6589 50.373 58.877 49.9108 58.877 49.3379ZM66.9824 49.6016L69.1309 42.4336H71.6602L67.4609 54.6016C66.8164 56.3789 65.7227 57.2676 64.1797 57.2676C63.8346 57.2676 63.4538 57.209 63.0371 57.0918V55.2559L63.4863 55.2852C64.0853 55.2852 64.5345 55.1745 64.834 54.9531C65.14 54.7383 65.3809 54.3737 65.5566 53.8594L65.8984 52.9512L62.1875 42.4336H64.7461L66.9824 49.6016ZM75.2344 42.4336L75.3027 43.6543C76.084 42.7103 77.1094 42.2383 78.3789 42.2383C80.5794 42.2383 81.6992 43.498 81.7383 46.0176V53H79.3652V46.1543C79.3652 45.4837 79.2188 44.9889 78.9258 44.6699C78.6393 44.3444 78.1673 44.1816 77.5098 44.1816C76.5527 44.1816 75.8398 44.6146 75.3711 45.4805V53H72.998V42.4336H75.2344ZM88.5059 51.3008C89.0983 51.3008 89.5898 51.1283 89.9805 50.7832C90.3711 50.4382 90.5794 50.0117 90.6055 49.5039H92.8418C92.8158 50.1615 92.6107 50.7767 92.2266 51.3496C91.8424 51.916 91.3216 52.3652 90.6641 52.6973C90.0065 53.0293 89.2969 53.1953 88.5352 53.1953C87.0573 53.1953 85.8854 52.7168 85.0195 51.7598C84.1536 50.8027 83.7207 49.4811 83.7207 47.7949V47.5508C83.7207 45.9427 84.1504 44.6569 85.0098 43.6934C85.8691 42.7233 87.041 42.2383 88.5254 42.2383C89.7819 42.2383 90.804 42.6061 91.5918 43.3418C92.3861 44.071 92.8027 45.0312 92.8418 46.2227H90.6055C90.5794 45.6172 90.3711 45.1191 89.9805 44.7285C89.5964 44.3379 89.1048 44.1426 88.5059 44.1426C87.7376 44.1426 87.1452 44.4225 86.7285 44.9824C86.3118 45.5358 86.1003 46.3789 86.0938 47.5117V47.8926C86.0938 49.0384 86.2988 49.8945 86.709 50.4609C87.1257 51.0208 87.7246 51.3008 88.5059 51.3008ZM96.9727 43.5859C97.7474 42.6875 98.7272 42.2383 99.9121 42.2383C102.165 42.2383 103.307 43.5241 103.34 46.0957V53H100.967V46.1836C100.967 45.4544 100.807 44.9401 100.488 44.6406C100.176 44.3346 99.7135 44.1816 99.1016 44.1816C98.151 44.1816 97.4414 44.6048 96.9727 45.4512V53H94.5996V38H96.9727V43.5859ZM111.279 44.6016C110.967 44.5495 110.645 44.5234 110.312 44.5234C109.225 44.5234 108.493 44.9401 108.115 45.7734V53H105.742V42.4336H108.008L108.066 43.6152C108.639 42.6973 109.434 42.2383 110.449 42.2383C110.788 42.2383 111.068 42.2839 111.289 42.375L111.279 44.6016ZM111.982 47.6191C111.982 46.584 112.188 45.653 112.598 44.8262C113.008 43.9928 113.584 43.3548 114.326 42.9121C115.068 42.4629 115.921 42.2383 116.885 42.2383C118.311 42.2383 119.466 42.6973 120.352 43.6152C121.243 44.5332 121.725 45.7507 121.797 47.2676L121.807 47.8242C121.807 48.8659 121.605 49.7969 121.201 50.6172C120.804 51.4375 120.231 52.0723 119.482 52.5215C118.74 52.9707 117.881 53.1953 116.904 53.1953C115.413 53.1953 114.219 52.7005 113.32 51.7109C112.428 50.7148 111.982 49.39 111.982 47.7363V47.6191ZM114.355 47.8242C114.355 48.9115 114.58 49.7643 115.029 50.3828C115.479 50.9948 116.104 51.3008 116.904 51.3008C117.705 51.3008 118.327 50.9883 118.77 50.3633C119.219 49.7383 119.443 48.8236 119.443 47.6191C119.443 46.5514 119.212 45.7051 118.75 45.0801C118.294 44.4551 117.673 44.1426 116.885 44.1426C116.11 44.1426 115.495 44.4518 115.039 45.0703C114.583 45.6823 114.355 46.6003 114.355 47.8242ZM126.016 42.4336L126.084 43.6543C126.865 42.7103 127.891 42.2383 129.16 42.2383C131.361 42.2383 132.48 43.498 132.52 46.0176V53H130.146V46.1543C130.146 45.4837 130 44.9889 129.707 44.6699C129.421 44.3444 128.949 44.1816 128.291 44.1816C127.334 44.1816 126.621 44.6146 126.152 45.4805V53H123.779V42.4336H126.016ZM137.471 53H135.098V42.4336H137.471V53ZM134.951 39.6895C134.951 39.3249 135.065 39.0221 135.293 38.7812C135.527 38.5404 135.859 38.4199 136.289 38.4199C136.719 38.4199 137.051 38.5404 137.285 38.7812C137.52 39.0221 137.637 39.3249 137.637 39.6895C137.637 40.0475 137.52 40.347 137.285 40.5879C137.051 40.8223 136.719 40.9395 136.289 40.9395C135.859 40.9395 135.527 40.8223 135.293 40.5879C135.065 40.347 134.951 40.0475 134.951 39.6895ZM142.598 51.1055H148.223V53H139.648V51.4473L145.01 44.3477H139.746V42.4336H148.018V43.9375L142.598 51.1055ZM152.646 53H150.273V42.4336H152.646V53ZM150.127 39.6895C150.127 39.3249 150.241 39.0221 150.469 38.7812C150.703 38.5404 151.035 38.4199 151.465 38.4199C151.895 38.4199 152.227 38.5404 152.461 38.7812C152.695 39.0221 152.812 39.3249 152.812 39.6895C152.812 40.0475 152.695 40.347 152.461 40.5879C152.227 40.8223 151.895 40.9395 151.465 40.9395C151.035 40.9395 150.703 40.8223 150.469 40.5879C150.241 40.347 150.127 40.0475 150.127 39.6895ZM157.441 42.4336L157.51 43.6543C158.291 42.7103 159.316 42.2383 160.586 42.2383C162.786 42.2383 163.906 43.498 163.945 46.0176V53H161.572V46.1543C161.572 45.4837 161.426 44.9889 161.133 44.6699C160.846 44.3444 160.374 44.1816 159.717 44.1816C158.76 44.1816 158.047 44.6146 157.578 45.4805V53H155.205V42.4336H157.441ZM165.957 47.6387C165.957 45.998 166.341 44.6895 167.109 43.7129C167.884 42.7298 168.91 42.2383 170.186 42.2383C171.39 42.2383 172.337 42.6582 173.027 43.498L173.135 42.4336H175.273V52.6777C175.273 54.0645 174.84 55.1582 173.975 55.959C173.115 56.7598 171.953 57.1602 170.488 57.1602C169.714 57.1602 168.955 56.9974 168.213 56.6719C167.477 56.3529 166.917 55.9329 166.533 55.4121L167.656 53.9863C168.385 54.8522 169.284 55.2852 170.352 55.2852C171.139 55.2852 171.761 55.0703 172.217 54.6406C172.673 54.2174 172.9 53.5924 172.9 52.7656V52.0527C172.217 52.8145 171.305 53.1953 170.166 53.1953C168.929 53.1953 167.917 52.7038 167.129 51.7207C166.348 50.7376 165.957 49.377 165.957 47.6387ZM168.32 47.8438C168.32 48.9049 168.535 49.7415 168.965 50.3535C169.401 50.959 170.003 51.2617 170.771 51.2617C171.729 51.2617 172.438 50.8516 172.9 50.0312V45.3828C172.451 44.582 171.748 44.1816 170.791 44.1816C170.01 44.1816 169.401 44.4909 168.965 45.1094C168.535 45.7279 168.32 46.6393 168.32 47.8438Z" fill="white"/>
<path d="M20.9395 84V74.7578H24.1069C25.1522 74.7578 25.9478 74.9673 26.4937 75.3862C27.0396 75.8052 27.3125 76.4294 27.3125 77.2588C27.3125 77.682 27.1982 78.0628 26.9697 78.4014C26.7412 78.7399 26.4069 79.0023 25.9668 79.1885C26.4661 79.3239 26.8512 79.5799 27.1221 79.9565C27.3971 80.3289 27.5347 80.7775 27.5347 81.3022C27.5347 82.1698 27.2554 82.8363 26.6968 83.3018C26.1424 83.7673 25.3468 84 24.3101 84H20.9395ZM22.5454 79.8296V82.7178H24.3291C24.8327 82.7178 25.2262 82.5929 25.5098 82.3433C25.7933 82.0936 25.9351 81.7466 25.9351 81.3022C25.9351 80.3416 25.4442 79.8507 24.4624 79.8296H22.5454ZM22.5454 78.6489H24.1196C24.619 78.6489 25.0083 78.5368 25.2876 78.3125C25.5711 78.084 25.7129 77.7624 25.7129 77.3477C25.7129 76.8906 25.5817 76.5605 25.3193 76.3574C25.0612 76.1543 24.6571 76.0527 24.1069 76.0527H22.5454V78.6489ZM30.6323 84H29.0898V74.25H30.6323V84ZM32.0288 80.5024C32.0288 79.8296 32.1621 79.2244 32.4287 78.687C32.6953 78.1453 33.0698 77.7306 33.5522 77.4429C34.0347 77.1509 34.589 77.0049 35.2153 77.0049C36.1421 77.0049 36.8932 77.3032 37.4688 77.8999C38.0485 78.4966 38.3617 79.2879 38.4082 80.2739L38.4146 80.6357C38.4146 81.3128 38.2834 81.918 38.021 82.4512C37.7629 82.9844 37.3905 83.397 36.9038 83.689C36.4214 83.981 35.8628 84.127 35.228 84.127C34.259 84.127 33.4824 83.8053 32.8984 83.1621C32.3187 82.5146 32.0288 81.6535 32.0288 80.5786V80.5024ZM33.5713 80.6357C33.5713 81.3424 33.7173 81.8968 34.0093 82.2988C34.3013 82.6966 34.7075 82.8955 35.228 82.8955C35.7485 82.8955 36.1527 82.6924 36.4404 82.2861C36.7324 81.8799 36.8784 81.2853 36.8784 80.5024C36.8784 79.8084 36.7282 79.2583 36.4277 78.8521C36.1315 78.4458 35.7274 78.2427 35.2153 78.2427C34.7118 78.2427 34.3118 78.4437 34.0156 78.8457C33.7194 79.2435 33.5713 79.8402 33.5713 80.6357ZM42.5405 82.8955C42.9256 82.8955 43.2451 82.7834 43.499 82.5591C43.7529 82.3348 43.8883 82.0576 43.9053 81.7275H45.3589C45.342 82.1549 45.2087 82.5549 44.959 82.9272C44.7093 83.2954 44.3708 83.5874 43.9434 83.8032C43.516 84.019 43.0547 84.127 42.5596 84.127C41.599 84.127 40.8372 83.8159 40.2744 83.1938C39.7116 82.5718 39.4302 81.7127 39.4302 80.6167V80.458C39.4302 79.4128 39.7095 78.577 40.2681 77.9507C40.8267 77.3201 41.5884 77.0049 42.5532 77.0049C43.37 77.0049 44.0343 77.244 44.5464 77.7222C45.0627 78.1961 45.3335 78.8203 45.3589 79.5947H43.9053C43.8883 79.2012 43.7529 78.8774 43.499 78.6235C43.2493 78.3696 42.9299 78.2427 42.5405 78.2427C42.0412 78.2427 41.6561 78.4246 41.3853 78.7886C41.1144 79.1483 40.9769 79.6963 40.9727 80.4326V80.6802C40.9727 81.425 41.106 81.9814 41.3726 82.3496C41.6434 82.7135 42.0327 82.8955 42.5405 82.8955ZM48.7549 81.0547L48.0693 81.7593V84H46.5269V74.25H48.0693V79.874L48.5518 79.271L50.4497 77.1318H52.3032L49.7515 79.9946L52.5762 84H50.7925L48.7549 81.0547ZM57.1655 82.1338C57.1655 81.8587 57.0513 81.6493 56.8228 81.5054C56.5985 81.3615 56.224 81.2345 55.6992 81.1245C55.1745 81.0145 54.7365 80.8748 54.3853 80.7056C53.6151 80.3332 53.23 79.7936 53.23 79.0869C53.23 78.4945 53.4797 77.9993 53.979 77.6016C54.4784 77.2038 55.1131 77.0049 55.8833 77.0049C56.7043 77.0049 57.3665 77.208 57.8701 77.6143C58.3779 78.0205 58.6318 78.5474 58.6318 79.1948H57.0894C57.0894 78.8986 56.9793 78.6532 56.7593 78.4585C56.5392 78.2596 56.2472 78.1602 55.8833 78.1602C55.5448 78.1602 55.2676 78.2384 55.0518 78.395C54.8402 78.5516 54.7344 78.7611 54.7344 79.0234C54.7344 79.2604 54.8338 79.4445 55.0327 79.5757C55.2316 79.7069 55.6336 79.8402 56.2388 79.9756C56.8439 80.1068 57.3179 80.2655 57.6606 80.4517C58.0076 80.6336 58.2637 80.8537 58.4287 81.1118C58.598 81.37 58.6826 81.6831 58.6826 82.0513C58.6826 82.6691 58.4266 83.1706 57.9146 83.5557C57.4025 83.9365 56.7318 84.127 55.9023 84.127C55.3395 84.127 54.8381 84.0254 54.3979 83.8223C53.9578 83.6191 53.6151 83.3398 53.3696 82.9844C53.1242 82.6289 53.0015 82.2459 53.0015 81.8354H54.4995C54.5207 82.1994 54.6582 82.4808 54.9121 82.6797C55.166 82.8743 55.5024 82.9717 55.9214 82.9717C56.3276 82.9717 56.6366 82.8955 56.8481 82.7432C57.0597 82.5866 57.1655 82.3835 57.1655 82.1338ZM66.8647 78.541C66.6616 78.5072 66.4521 78.4902 66.2363 78.4902C65.5296 78.4902 65.0535 78.7611 64.8081 79.3027V84H63.2656V77.1318H64.7383L64.7764 77.8999C65.1488 77.3032 65.665 77.0049 66.3252 77.0049C66.5452 77.0049 66.7272 77.0345 66.8711 77.0938L66.8647 78.541ZM70.7368 84.127C69.7593 84.127 68.9658 83.8201 68.3564 83.2065C67.7513 82.5887 67.4487 81.7677 67.4487 80.7437V80.5532C67.4487 79.8677 67.5799 79.2562 67.8423 78.7188C68.1089 78.1771 68.4813 77.756 68.9595 77.4556C69.4377 77.1551 69.9709 77.0049 70.5591 77.0049C71.4943 77.0049 72.2158 77.3032 72.7236 77.8999C73.2357 78.4966 73.4917 79.3408 73.4917 80.4326V81.0547H69.0039C69.0505 81.6217 69.2388 82.0703 69.5688 82.4004C69.9032 82.7305 70.3221 82.8955 70.8257 82.8955C71.5324 82.8955 72.1079 82.6099 72.5522 82.0386L73.3838 82.832C73.1087 83.2425 72.7406 83.562 72.2793 83.7905C71.8223 84.0148 71.3081 84.127 70.7368 84.127ZM70.5527 78.2427C70.1296 78.2427 69.7868 78.3908 69.5244 78.687C69.2663 78.9832 69.1012 79.3958 69.0293 79.9248H71.9683V79.8105C71.9344 79.2943 71.7969 78.9049 71.5557 78.6426C71.3145 78.376 70.9801 78.2427 70.5527 78.2427ZM76.145 77.1318L76.1895 77.8491C76.6719 77.2863 77.332 77.0049 78.1699 77.0049C79.0882 77.0049 79.7166 77.3561 80.0552 78.0586C80.5545 77.3561 81.257 77.0049 82.1626 77.0049C82.9201 77.0049 83.4829 77.2144 83.8511 77.6333C84.2235 78.0522 84.4139 78.6701 84.4224 79.4868V84H82.8799V79.5312C82.8799 79.0954 82.7847 78.7759 82.5942 78.5728C82.4038 78.3696 82.0885 78.2681 81.6484 78.2681C81.2972 78.2681 81.0094 78.3633 80.7852 78.5537C80.5651 78.7399 80.4106 78.9854 80.3218 79.29L80.3281 84H78.7856V79.4805C78.7645 78.6722 78.3519 78.2681 77.5479 78.2681C76.93 78.2681 76.492 78.5199 76.2339 79.0234V84H74.6914V77.1318H76.145ZM90.1099 84C90.0422 83.8688 89.9829 83.6551 89.9321 83.3589C89.4412 83.8709 88.8403 84.127 88.1294 84.127C87.4396 84.127 86.8768 83.9302 86.4409 83.5366C86.005 83.1431 85.7871 82.6564 85.7871 82.0767C85.7871 81.3446 86.0579 80.7839 86.5996 80.3945C87.1455 80.001 87.9242 79.8042 88.9355 79.8042H89.8813V79.3535C89.8813 78.998 89.7819 78.7145 89.583 78.5029C89.3841 78.2871 89.0815 78.1792 88.6753 78.1792C88.3241 78.1792 88.0363 78.2681 87.812 78.4458C87.5877 78.6193 87.4756 78.8415 87.4756 79.1123H85.9331C85.9331 78.7357 86.0579 78.3844 86.3076 78.0586C86.5573 77.7285 86.8958 77.4704 87.3232 77.2842C87.7549 77.098 88.2352 77.0049 88.7642 77.0049C89.5682 77.0049 90.2093 77.208 90.6875 77.6143C91.1657 78.0163 91.4111 78.5833 91.4238 79.3154V82.4131C91.4238 83.0309 91.5106 83.5239 91.6841 83.8921V84H90.1099ZM88.415 82.8892C88.7197 82.8892 89.0054 82.8151 89.272 82.667C89.5428 82.5189 89.7459 82.32 89.8813 82.0703V80.7754H89.0498C88.4785 80.7754 88.049 80.8748 87.7612 81.0737C87.4735 81.2726 87.3296 81.554 87.3296 81.918C87.3296 82.2142 87.4269 82.4512 87.6216 82.6289C87.8205 82.8024 88.085 82.8892 88.415 82.8892ZM94.6802 84H93.1377V77.1318H94.6802V84ZM93.0425 75.3481C93.0425 75.1112 93.1165 74.9144 93.2646 74.7578C93.417 74.6012 93.6328 74.5229 93.9121 74.5229C94.1914 74.5229 94.4072 74.6012 94.5596 74.7578C94.7119 74.9144 94.7881 75.1112 94.7881 75.3481C94.7881 75.5809 94.7119 75.7756 94.5596 75.9321C94.4072 76.0845 94.1914 76.1606 93.9121 76.1606C93.6328 76.1606 93.417 76.0845 93.2646 75.9321C93.1165 75.7756 93.0425 75.5809 93.0425 75.3481ZM97.7969 77.1318L97.8413 77.9253C98.3491 77.3117 99.0156 77.0049 99.8408 77.0049C101.271 77.0049 101.999 77.8237 102.024 79.4614V84H100.482V79.5503C100.482 79.1144 100.387 78.7928 100.196 78.5854C100.01 78.3739 99.7033 78.2681 99.2759 78.2681C98.6538 78.2681 98.1904 78.5495 97.8857 79.1123V84H96.3433V77.1318H97.7969ZM105.243 84H103.7V77.1318H105.243V84ZM103.605 75.3481C103.605 75.1112 103.679 74.9144 103.827 74.7578C103.979 74.6012 104.195 74.5229 104.475 74.5229C104.754 74.5229 104.97 74.6012 105.122 74.7578C105.274 74.9144 105.351 75.1112 105.351 75.3481C105.351 75.5809 105.274 75.7756 105.122 75.9321C104.97 76.0845 104.754 76.1606 104.475 76.1606C104.195 76.1606 103.979 76.0845 103.827 75.9321C103.679 75.7756 103.605 75.5809 103.605 75.3481ZM108.359 77.1318L108.404 77.9253C108.912 77.3117 109.578 77.0049 110.403 77.0049C111.834 77.0049 112.562 77.8237 112.587 79.4614V84H111.044V79.5503C111.044 79.1144 110.949 78.7928 110.759 78.5854C110.573 78.3739 110.266 78.2681 109.838 78.2681C109.216 78.2681 108.753 78.5495 108.448 79.1123V84H106.906V77.1318H108.359ZM113.895 80.5151C113.895 79.4487 114.144 78.5981 114.644 77.9634C115.147 77.3244 115.814 77.0049 116.643 77.0049C117.426 77.0049 118.042 77.2778 118.49 77.8237L118.56 77.1318H119.95V83.7905C119.95 84.6919 119.669 85.4028 119.106 85.9233C118.547 86.4438 117.792 86.7041 116.84 86.7041C116.336 86.7041 115.843 86.5983 115.361 86.3867C114.883 86.1794 114.519 85.9064 114.269 85.5679L114.999 84.6411C115.473 85.2039 116.057 85.4854 116.751 85.4854C117.263 85.4854 117.667 85.3457 117.963 85.0664C118.26 84.7913 118.408 84.3851 118.408 83.8477V83.3843C117.963 83.8794 117.371 84.127 116.63 84.127C115.826 84.127 115.168 83.8075 114.656 83.1685C114.148 82.5295 113.895 81.645 113.895 80.5151ZM115.431 80.6484C115.431 81.3382 115.57 81.882 115.85 82.2798C116.133 82.6733 116.525 82.8701 117.024 82.8701C117.646 82.8701 118.107 82.6035 118.408 82.0703V79.0488C118.116 78.5283 117.659 78.2681 117.037 78.2681C116.529 78.2681 116.133 78.4691 115.85 78.8711C115.57 79.2731 115.431 79.8656 115.431 80.6484Z" fill="white"/>
<path d="M245.691 74.7134V75.9893H245.5C244.637 76.002 243.947 76.2389 243.431 76.7002C242.915 77.1615 242.608 77.8153 242.511 78.6616C243.006 78.1411 243.639 77.8809 244.409 77.8809C245.225 77.8809 245.869 78.1686 246.338 78.7441C246.812 79.3197 247.049 80.0623 247.049 80.9722C247.049 81.9116 246.772 82.6733 246.218 83.2573C245.668 83.8371 244.944 84.127 244.047 84.127C243.124 84.127 242.375 83.7863 241.8 83.105C241.229 82.4237 240.943 81.5308 240.943 80.4263V79.8994C240.943 78.2786 241.336 77.0091 242.124 76.0908C242.915 75.1725 244.051 74.7134 245.532 74.7134H245.691ZM244.034 79.125C243.696 79.125 243.385 79.2202 243.101 79.4106C242.822 79.6011 242.617 79.855 242.485 80.1724V80.6421C242.485 81.3276 242.629 81.8735 242.917 82.2798C243.205 82.6818 243.577 82.8828 244.034 82.8828C244.491 82.8828 244.853 82.7114 245.12 82.3687C245.386 82.0259 245.52 81.5752 245.52 81.0166C245.52 80.458 245.384 80.0031 245.113 79.6519C244.842 79.3006 244.483 79.125 244.034 79.125ZM254.432 75.6147L250.737 84H249.119L252.807 75.9956H248.027V74.7578H254.432V75.6147ZM255.987 86.082L255.155 85.5869C255.401 85.2018 255.568 84.8654 255.657 84.5776C255.75 84.2941 255.799 84.0042 255.803 83.708V82.5083H257.193L257.187 83.6191C257.182 84.0677 257.068 84.5163 256.844 84.9648C256.624 85.4176 256.338 85.79 255.987 86.082ZM264.677 75.6147L260.982 84H259.364L263.052 75.9956H258.272V74.7578H264.677V75.6147ZM272.065 75.6147L268.371 84H266.752L270.44 75.9956H265.661V74.7578H272.065V75.6147ZM273.716 79.417L274.217 74.7578H279.181V76.0908H275.5L275.246 78.2998C275.673 78.0544 276.155 77.9316 276.693 77.9316C277.573 77.9316 278.257 78.2131 278.743 78.7759C279.234 79.3387 279.479 80.0962 279.479 81.0483C279.479 81.9878 279.209 82.7368 278.667 83.2954C278.125 83.8498 277.383 84.127 276.439 84.127C275.593 84.127 274.89 83.8879 274.332 83.4097C273.777 82.9272 273.477 82.2925 273.43 81.5054H274.922C274.981 81.9539 275.142 82.2988 275.404 82.54C275.667 82.777 276.009 82.8955 276.433 82.8955C276.907 82.8955 277.275 82.7262 277.537 82.3877C277.804 82.0492 277.937 81.5879 277.937 81.0039C277.937 80.4411 277.791 79.9967 277.499 79.6709C277.207 79.3408 276.805 79.1758 276.293 79.1758C276.014 79.1758 275.777 79.2139 275.582 79.29C275.387 79.362 275.176 79.5059 274.947 79.7217L273.716 79.417Z" fill="white"/>
<rect opacity="0.2" x="20" y="93" width="260" height="8" rx="4" fill="white"/>
<rect x="20" y="93" width="171" height="8" rx="4" fill="#FA6800"/>
</svg>
