<svg width="26" height="26" viewBox="0 0 26 26" fill="none" xmlns="http://www.w3.org/2000/svg">
<path fill-rule="evenodd" clip-rule="evenodd" d="M13 0C20.1681 0 26 5.83191 26 13C26 20.1687 20.1681 26 13 26C5.83135 26 0 20.1687 0 13C0 5.83191 5.83135 0 13 0ZM8.07865 15.6605L12.5998 20.1817C12.6524 20.2342 12.7146 20.2755 12.7841 20.3043C12.922 20.3614 13.078 20.3614 13.2159 20.3043C13.2854 20.2755 13.3482 20.2342 13.4002 20.1817L17.9213 15.6605C18.1423 15.4395 18.1423 15.0823 17.9213 14.8613C17.7003 14.6403 17.3431 14.6403 17.1221 14.8613L13.5652 18.4182L13.5652 6.21739C13.5652 5.90539 13.312 5.65217 13 5.65217C12.688 5.65217 12.4348 5.90539 12.4348 6.21739L12.4348 18.4182L8.87787 14.8613C8.65687 14.6403 8.29965 14.6403 8.07865 14.8613C7.96844 14.9715 7.91304 15.1162 7.91304 15.2609C7.91304 15.4056 7.96844 15.5503 8.07865 15.6605Z" fill="white"/>
<path fill-rule="evenodd" clip-rule="evenodd" d="M13.9838 17.729V5.52212C13.9838 4.98526 13.5433 4.55005 12.9999 4.55005C12.4564 4.55005 12.0159 4.98526 12.0159 5.52212V17.7288L8.82933 14.5812C8.44504 14.2016 7.82202 14.2016 7.43777 14.5812C7.05353 14.9609 7.05356 15.5764 7.43785 15.956L12.9998 21.45L18.5613 15.957C18.9456 15.5774 18.9457 14.9619 18.5615 14.5822C18.1773 14.2026 17.5542 14.2025 17.1699 14.5821L13.9838 17.729Z" fill="#FA7200"/>
</svg>
