<svg width="120" height="121" viewBox="0 0 120 121" fill="none" xmlns="http://www.w3.org/2000/svg">
<rect width="120" height="120" rx="5" fill="black"/>
<rect opacity="0.2" y="1" width="120" height="120" fill="black" fill-opacity="0.01"/>
<path d="M59.6992 97.0994V60.9999L77.749 79.0497H41.6992V42.6999L59.7241 24.675" stroke="white" stroke-width="2"/>
<path fill-rule="evenodd" clip-rule="evenodd" d="M59.6992 103.2C63.2891 103.2 66.1992 100.29 66.1992 96.7C66.1992 93.1101 63.2891 90.2 59.6992 90.2C56.1094 90.2 53.1992 93.1101 53.1992 96.7C53.1992 100.29 56.1094 103.2 59.6992 103.2Z" fill="#FA6800"/>
<path fill-rule="evenodd" clip-rule="evenodd" d="M41.6992 85.2C45.2891 85.2 48.1992 82.2898 48.1992 78.7C48.1992 75.1101 45.2891 72.2 41.6992 72.2C38.1094 72.2 35.1992 75.1101 35.1992 78.7C35.1992 82.2898 38.1094 85.2 41.6992 85.2Z" fill="#FA6800"/>
<path fill-rule="evenodd" clip-rule="evenodd" d="M77.6992 85.2C81.2891 85.2 84.1992 82.2898 84.1992 78.7C84.1992 75.1101 81.2891 72.2 77.6992 72.2C74.1094 72.2 71.1992 75.1101 71.1992 78.7C71.1992 82.2898 74.1094 85.2 77.6992 85.2Z" fill="#FA6800"/>
<path fill-rule="evenodd" clip-rule="evenodd" d="M23.6992 67.2C27.2891 67.2 30.1992 64.2898 30.1992 60.7C30.1992 57.1101 27.2891 54.2 23.6992 54.2C20.1094 54.2 17.1992 57.1101 17.1992 60.7C17.1992 64.2898 20.1094 67.2 23.6992 67.2Z" fill="#FA6800"/>
<path fill-rule="evenodd" clip-rule="evenodd" d="M59.6992 67.2C63.2891 67.2 66.1992 64.2898 66.1992 60.7C66.1992 57.1101 63.2891 54.2 59.6992 54.2C56.1094 54.2 53.1992 57.1101 53.1992 60.7C53.1992 64.2898 56.1094 67.2 59.6992 67.2Z" fill="#FA6800"/>
<path fill-rule="evenodd" clip-rule="evenodd" d="M95.6992 67.2C99.2891 67.2 102.199 64.2898 102.199 60.7C102.199 57.1101 99.2891 54.2 95.6992 54.2C92.1094 54.2 89.1992 57.1101 89.1992 60.7C89.1992 64.2898 92.1094 67.2 95.6992 67.2Z" fill="#FA6800"/>
<path fill-rule="evenodd" clip-rule="evenodd" d="M77.6992 49.2C81.2891 49.2 84.1992 46.2898 84.1992 42.7C84.1992 39.1101 81.2891 36.2 77.6992 36.2C74.1094 36.2 71.1992 39.1101 71.1992 42.7C71.1992 46.2898 74.1094 49.2 77.6992 49.2Z" fill="#FA6800"/>
<path fill-rule="evenodd" clip-rule="evenodd" d="M41.6992 49.2C45.2891 49.2 48.1992 46.2898 48.1992 42.7C48.1992 39.1101 45.2891 36.2 41.6992 36.2C38.1094 36.2 35.1992 39.1101 35.1992 42.7C35.1992 46.2898 38.1094 49.2 41.6992 49.2Z" fill="#FA6800"/>
<path fill-rule="evenodd" clip-rule="evenodd" d="M59.6992 31.2C63.2891 31.2 66.1992 28.2898 66.1992 24.7C66.1992 21.1101 63.2891 18.2 59.6992 18.2C56.1094 18.2 53.1992 21.1101 53.1992 24.7C53.1992 28.2898 56.1094 31.2 59.6992 31.2Z" fill="#FA6800"/>
</svg>
